<svg xmlns="http://www.w3.org/2000/svg" width="250" height="121" viewBox="0 0 250 121">
    <defs>
        <radialGradient id="a" cx="-89.848%" cy="133.494%" r="219.067%" fx="-89.848%" fy="133.494%" gradientTransform="matrix(1 0 0 .98866 0 .015)">
            <stop offset="0%" stop-color="#2E4E4A"/>
            <stop offset="36%" stop-color="#2C9A93"/>
            <stop offset="81%" stop-color="#46B8B2"/>
            <stop offset="94%" stop-color="#fd9573"/>
        </radialGradient>
        <radialGradient id="b" cx="-8.665%" cy="46.082%" r="65.151%" fx="-8.665%" fy="46.082%" gradientTransform="matrix(1 0 0 .68403 0 .146)">
            <stop offset="3%" stop-color="#2E4E4A"/>
            <stop offset="32%" stop-color="#2C9A93"/>
            <stop offset="48%" stop-color="#3BABA4"/>
            <stop offset="71%" stop-color="#4ABCB6"/>
            <stop offset="87%" stop-color="#fd9573"/>
        </radialGradient>
        <radialGradient id="c" cx="33.925%" cy="17.301%" r="67.142%" fx="33.925%" fy="17.301%" gradientTransform="matrix(1 0 0 .68403 0 .055)">
            <stop offset="3%" stop-color="#2E4E4A"/>
            <stop offset="39%" stop-color="#2C9A93"/>
            <stop offset="47%" stop-color="#309F98" stop-opacity=".89"/>
            <stop offset="61%" stop-color="#3AAAA4" stop-opacity=".59"/>
            <stop offset="82%" stop-color="#4BBDB7" stop-opacity=".12"/>
            <stop offset="87%" stop-color="#fd9573" stop-opacity="0"/>
        </radialGradient>
        <radialGradient id="d" cx="18.734%" cy="72.619%" r="197.688%" fx="18.734%" fy="72.619%" gradientTransform="matrix(1 0 0 .38191 0 .449)">
            <stop offset="3%" stop-color="#2E4E4A"/>
            <stop offset="39%" stop-color="#2C9A93"/>
            <stop offset="62%" stop-color="#3BABA4"/>
            <stop offset="87%" stop-color="#fd9573"/>
        </radialGradient>
        <radialGradient id="e" cx="41.447%" cy="22.108%" r="50.93%" fx="41.447%" fy="22.108%" gradientTransform="matrix(.74254 0 0 1 .107 0)">
            <stop offset="0%" stop-color="#2E4E4A"/>
            <stop offset="36%" stop-color="#2C9A93"/>
            <stop offset="48%" stop-color="#32A19A" stop-opacity=".83"/>
            <stop offset="72%" stop-color="#41B2AB" stop-opacity=".41"/>
            <stop offset="93%" stop-color="#fd9573" stop-opacity="0"/>
        </radialGradient>
        <radialGradient id="f" cx="16.697%" cy="25.412%" r="40.258%" fx="16.697%" fy="25.412%" gradientTransform="matrix(.74254 0 0 1 .043 0)">
            <stop offset="0%" stop-color="#2E4E4A"/>
            <stop offset="30%" stop-color="#2C9A93"/>
            <stop offset="51%" stop-color="#39A8A2" stop-opacity=".64"/>
            <stop offset="80%" stop-color="#49BBB5" stop-opacity=".18"/>
            <stop offset="93%" stop-color="#fd9573" stop-opacity="0"/>
        </radialGradient>
        <radialGradient id="g" cx="36.215%" cy="60.894%" r="47.075%" fx="36.215%" fy="60.894%" gradientTransform="matrix(1 0 0 .66754 0 .202)">
            <stop offset="3%" stop-color="#2E4E4A"/>
            <stop offset="11%" stop-color="#2D6964"/>
            <stop offset="21%" stop-color="#2D847E"/>
            <stop offset="30%" stop-color="#2C948E"/>
            <stop offset="37%" stop-color="#2C9A93"/>
            <stop offset="51%" stop-color="#33A29C" stop-opacity=".79"/>
            <stop offset="84%" stop-color="#46B7B1" stop-opacity=".26"/>
            <stop offset="99%" stop-color="#fd9573" stop-opacity="0"/>
        </radialGradient>
        <radialGradient id="h" cx="63.435%" cy="51.341%" r="40.571%" fx="63.435%" fy="51.341%" gradientTransform="matrix(1 0 0 .66754 0 .17)">
            <stop offset="0%" stop-color="#2E4E4A"/>
            <stop offset="38%" stop-color="#2C9A93"/>
            <stop offset="38%" stop-color="#2C9A93"/>
            <stop offset="65%" stop-color="#3FAFA9" stop-opacity=".46"/>
            <stop offset="84%" stop-color="#4ABDB7" stop-opacity=".13"/>
            <stop offset="100%" stop-color="#fd9573" stop-opacity="0"/>
        </radialGradient>
        <radialGradient id="i" cx="-80.495%" cy="161.626%" r="188.714%" fx="-80.495%" fy="161.626%" gradientTransform="matrix(.73765 0 0 1 -.211 0)">
            <stop offset="0%" stop-color="#2E4E4A"/>
            <stop offset="37%" stop-color="#2C9A93"/>
            <stop offset="70%" stop-color="#3FB0A9"/>
            <stop offset="93%" stop-color="#fd9573"/>
        </radialGradient>
        <radialGradient id="j" cx="-45.797%" cy="124.183%" r="185.526%" fx="-45.797%" fy="124.183%" gradientTransform="matrix(1 0 0 .811 0 .235)">
            <stop offset="0%" stop-color="#2E4E4A"/>
            <stop offset="48%" stop-color="#2C9A93"/>
            <stop offset="94%" stop-color="#fd9573"/>
        </radialGradient>
    </defs>
    <g fill="none" fill-rule="nonzero">
        <path fill="url(#a)" d="M78.618 20.222c-4.22 0-7.566-3.33-7.566-7.257v-.593c.092-4.008 3.398-7.21 7.445-7.21 4.046 0 7.352 3.202 7.444 7.21v.593c-.06 3.983-3.304 7.197-7.323 7.257z"/>
        <path fill="#fd9573" d="M78.618 90.043c-4.144.032-7.53-3.269-7.566-7.374V36.756c0-4.044 3.361-7.256 7.566-7.256 4.034.02 7.299 3.259 7.316 7.256V82.67c-.01 4.02-3.26 7.295-7.316 7.374zM249.786 60.437c-.02 16.61-13.606 30.072-30.372 30.093a31.711 31.711 0 0 1-16.926-5.006v27.83a7.185 7.185 0 0 1-3.582 6.373 7.324 7.324 0 0 1-7.363 0 7.185 7.185 0 0 1-3.583-6.372V37.706a7.152 7.152 0 0 1 2.16-5.07 7.286 7.286 0 0 1 5.149-2.068c3.16.022 5.957 2.03 6.962 4.998a30.157 30.157 0 0 1 17.183-5.234c16.77.021 30.358 13.489 30.372 30.105zm-14.524 0c.002-6.352-3.859-12.078-9.78-14.51-5.922-2.432-12.74-1.09-17.272 3.401a15.597 15.597 0 0 0-3.438 17.113c2.453 5.868 8.232 9.694 14.642 9.694 8.737-.033 15.812-7.042 15.848-15.698z"/>
        <path fill="url(#b)" d="M249.786 60.437c-.02 16.61-13.606 30.072-30.372 30.093a31.711 31.711 0 0 1-16.926-5.006v27.83a7.185 7.185 0 0 1-3.582 6.373 7.324 7.324 0 0 1-7.363 0 7.185 7.185 0 0 1-3.583-6.372V37.706a7.152 7.152 0 0 1 2.16-5.07 7.286 7.286 0 0 1 5.149-2.068c3.16.022 5.957 2.03 6.962 4.998a30.157 30.157 0 0 1 17.183-5.234c16.77.021 30.358 13.489 30.372 30.105zm-14.524 0c.002-6.352-3.859-12.078-9.78-14.51-5.922-2.432-12.74-1.09-17.272 3.401a15.597 15.597 0 0 0-3.438 17.113c2.453 5.868 8.232 9.694 14.642 9.694 8.737-.033 15.812-7.042 15.848-15.698z"/>
        <path fill="#fd9573" d="M249.786 60.437c-.014-16.616-13.602-30.084-30.372-30.105-.963 0-1.918.054-2.85.141-.223 0-.441.05-.664.076-.81.091-1.611.21-2.397.361l-.33.065c-12.948 2.691-22.647 13.378-23.979 26.419-1.331 13.04 6.01 25.435 18.151 30.642l.484.202a37.1 37.1 0 0 0 2.067.76c.292.095.584.194.879.277.703.208 1.417.39 2.14.548.338.072.683.129 1.029.193.587.107 1.181.198 1.78.27.31.038.617.076.928.107.913.08 1.83.137 2.762.137 16.766-.021 30.351-13.482 30.372-30.093zm-30.372 15.698c-6.41 0-12.189-3.826-14.642-9.694a15.597 15.597 0 0 1 3.438-17.113c4.533-4.49 11.35-5.833 17.272-3.4 5.921 2.43 9.782 8.157 9.78 14.509 0 4.163-1.67 8.155-4.643 11.097a15.907 15.907 0 0 1-11.205 4.59v.011z"/>
        <path fill="url(#c)" d="M249.786 60.437c-.02 16.61-13.606 30.072-30.372 30.093a31.711 31.711 0 0 1-16.926-5.006v27.83a7.185 7.185 0 0 1-3.582 6.373 7.324 7.324 0 0 1-7.363 0 7.185 7.185 0 0 1-3.583-6.372V37.706a7.152 7.152 0 0 1 2.16-5.07 7.286 7.286 0 0 1 5.149-2.068c3.16.022 5.957 2.03 6.962 4.998a30.157 30.157 0 0 1 17.183-5.234c16.77.021 30.358 13.489 30.372 30.105zm-14.524 0c.002-6.352-3.859-12.078-9.78-14.51-5.922-2.432-12.74-1.09-17.272 3.401a15.597 15.597 0 0 0-3.438 17.113c2.453 5.868 8.232 9.694 14.642 9.694 8.737-.033 15.812-7.042 15.848-15.698z"/>
        <path fill="#fd9573" d="M202.197 55.53l.384-18.584c0-1.71-1.067-3.098-2.16-4.265a7.338 7.338 0 0 0-7.904-1.58 7.223 7.223 0 0 0-4.537 6.605V68.8"/>
        <path fill="url(#d)" d="M202.197 55.53l.384-18.584c0-1.71-1.067-3.098-2.16-4.265a7.338 7.338 0 0 0-7.904-1.58 7.223 7.223 0 0 0-4.537 6.605V68.8"/>
        <path fill="#90C95F" d="M230.467 49.212l-1.213-6.313h-9.107c.106-.045.215-.08.326-.107L207.871 32.53a25.298 25.298 0 0 0-3.68 1.794 29.384 29.384 0 0 0-3.801 2.635c-8.65 6.841-12.234 15.987-12.729 26.827l.345 21.526c-.072-4.562 1.278-9.484 2.962-13.703a42.499 42.499 0 0 1 7.37-12.084c4.987-5.754 11.635-10.874 19.277-12.429 4.258-.87 9.203-.403 12.852 2.117z"/>
        <path fill="#fd9573" d="M219.414 30.332c-.963 0-1.918.054-2.85.141-.223 0-.441.05-.664.076-.81.091-1.611.21-2.397.361-.112.023-1.562.32-1.67.346a27.11 27.11 0 0 0-5.032 1.74v17.938c4.497-5.874 12.513-7.856 19.268-4.763 6.755 3.092 10.428 10.426 8.828 17.626-1.6 7.2-8.042 12.327-15.483 12.323-5.16 0-12.613 11.654-12.613 11.654.184.083.36.178.544.258l.484.202a37.1 37.1 0 0 0 2.067.76c.292.095.584.194.879.277.703.208 1.417.39 2.14.548.338.072.683.129 1.029.194.587.106 1.181.197 1.78.27.31.037.617.075.928.106.913.08 1.83.137 2.762.137 16.774 0 30.372-13.473 30.372-30.093 0-16.62-13.598-30.093-30.372-30.093v-.008zM177.173 53.644v29.268a6.948 6.948 0 0 1-2.02 5.051 7.08 7.08 0 0 1-5.062 2.088 7.286 7.286 0 0 1-5.158-2.063 7.152 7.152 0 0 1-2.166-5.076V53.287c0-4.637-4.2-8.207-9.122-8.207-5.287 0-9.484 3.57-9.484 8.207v29.618c0 3.908-3.198 7.077-7.143 7.077s-7.143-3.169-7.143-7.077V53.287c0-4.637-4.22-8.207-9.365-8.207-5.144 0-9.364 3.57-9.364 8.207v29.975a7.027 7.027 0 0 1-2.122 4.984 7.159 7.159 0 0 1-5.06 2.033c-3.836 0-7.204-3.212-7.204-7.017V37.824c0-3.926 3.36-7.256 7.204-7.256a6.72 6.72 0 0 1 5.52 2.855 24.738 24.738 0 0 1 11.045-2.616 24.396 24.396 0 0 1 16.546 6.443c4.201-4.044 9.975-6.424 16.57-6.424 12.843 0 23.528 10.111 23.528 22.48v.338z"/>
        <path fill="url(#e)" d="M177.173 53.644v29.268a6.948 6.948 0 0 1-2.02 5.051 7.08 7.08 0 0 1-5.062 2.088 7.286 7.286 0 0 1-5.158-2.063 7.152 7.152 0 0 1-2.166-5.076V53.287c0-4.637-4.2-8.207-9.122-8.207-5.287 0-9.484 3.57-9.484 8.207v29.618c0 3.908-3.198 7.077-7.143 7.077s-7.143-3.169-7.143-7.077V53.287c0-4.637-4.22-8.207-9.365-8.207-5.144 0-9.364 3.57-9.364 8.207v29.975a7.027 7.027 0 0 1-2.122 4.984 7.159 7.159 0 0 1-5.06 2.033c-3.836 0-7.204-3.212-7.204-7.017V37.824c0-3.926 3.36-7.256 7.204-7.256a6.72 6.72 0 0 1 5.52 2.855 24.738 24.738 0 0 1 11.045-2.616 24.396 24.396 0 0 1 16.546 6.443c4.201-4.044 9.975-6.424 16.57-6.424 12.843 0 23.528 10.111 23.528 22.48v.338z"/>
        <path fill="#fd9573" d="M136.957 37.129a24.394 24.394 0 0 0-16.447-6.322c-3.837.005-7.62.9-11.045 2.616a6.72 6.72 0 0 0-5.5-2.855c-3.837 0-7.205 3.33-7.205 7.256v45.438c0 3.801 3.36 7.017 7.204 7.017a7.159 7.159 0 0 0 5.072-2.026 7.027 7.027 0 0 0 2.129-4.991V53.287c0-4.637 4.2-8.207 9.364-8.207 5.164 0 9.365 3.57 9.365 8.207v29.618a6.967 6.967 0 0 0 2.023 5.03 7.1 7.1 0 0 0 5.04 2.097V37.129z"/>
        <path fill="url(#f)" d="M177.173 53.644v29.268a6.948 6.948 0 0 1-2.02 5.051 7.08 7.08 0 0 1-5.062 2.088 7.286 7.286 0 0 1-5.158-2.063 7.152 7.152 0 0 1-2.166-5.076V53.287c0-4.637-4.2-8.207-9.122-8.207-5.287 0-9.484 3.57-9.484 8.207v29.618c0 3.908-3.198 7.077-7.143 7.077s-7.143-3.169-7.143-7.077V53.287c0-4.637-4.22-8.207-9.365-8.207-5.144 0-9.364 3.57-9.364 8.207v29.975a7.027 7.027 0 0 1-2.122 4.984 7.159 7.159 0 0 1-5.06 2.033c-3.836 0-7.204-3.212-7.204-7.017V37.824c0-3.926 3.36-7.256 7.204-7.256a6.72 6.72 0 0 1 5.52 2.855 24.738 24.738 0 0 1 11.045-2.616 24.396 24.396 0 0 1 16.546 6.443c4.201-4.044 9.975-6.424 16.57-6.424 12.843 0 23.528 10.111 23.528 22.48v.338z"/>
        <path fill="#fd9573" d="M144.913 50.01c-.338 1.194-.729 2.034-.729 3.516v29.618c0 3.909-3.198 7.078-7.143 7.078s-7.143-3.17-7.143-7.078V53.526a7.585 7.585 0 0 0-1.255-4.348s-1.02-2.414-5.52-3.778l7.385-1.479 13.09 5.177 1.315.912"/>
        <path fill="#fd9573" d="M119.8 45.1c-10.653-.115-19.507 7.776-23.063 17.29V49.205c1.827-6.762 6.455-12.444 12.74-15.642 0 0 4.508-2.737 12.08-2.729 0 0 9.142.167 15.534 6.462 3.583 3.523 6.583 7.705 7.822 12.718l-4.185 3.467-11.828-6.869s-5.336-1.47-9.1-1.513zM47.187 41.051a25.91 25.91 0 0 0 5.401-15.702C52.581 11.061 41.048 0 26.29 0H6.157C2.302 0 0 3.57 0 7.492v75.055c0 3.687 2.509 7.496 6.234 7.732h27.74c14.283 0 26.29-12.487 26.29-27.239 0-9.156-5.282-17.367-13.077-21.989zm-33.02-26.816H26.29c6.963 0 12.127 4.877 12.127 11.297 0 6.081-4.684 11.064-10.57 11.897l-13.68 2.512V14.235zm19.807 62.208H14.168v-24.98h18.844c6.962 0 13.085 5.473 13.085 11.783 0 6.89-5.762 13.197-12.123 13.197z"/>
        <path fill="#90C95F" d="M53.839 46.612a27.942 27.942 0 0 0-6.652-5.56 25.91 25.91 0 0 0 5.401-15.703C52.581 11.061 41.048 0 26.29 0H6.157C2.302 0 0 3.57 0 7.492v39.12h53.839zM14.168 14.235H26.29c6.963 0 12.127 4.877 12.127 11.297 0 6.081-4.684 11.064-10.57 11.897l-13.68 2.512V14.235z"/>
        <path fill="#fd9573" d="M53.839 46.612a27.942 27.942 0 0 0-6.652-5.56 25.91 25.91 0 0 0 5.401-15.703C52.581 11.061 41.048 0 26.29 0H6.157C2.302 0 0 3.57 0 7.492v42.572l53.839-3.452zM14.168 14.235H26.29c6.963 0 12.127 4.877 12.127 11.297 0 6.081-4.684 11.064-10.57 11.897l-13.68 2.512V14.235z"/>
        <path fill="url(#g)" d="M47.187 41.051a25.91 25.91 0 0 0 5.401-15.702C52.581 11.061 41.048 0 26.29 0H6.157C2.302 0 0 3.57 0 7.492v75.055c0 3.687 2.509 7.496 6.234 7.732h27.74c14.283 0 26.29-12.487 26.29-27.239 0-9.156-5.282-17.367-13.077-21.989zm-33.02-26.816H26.29c6.963 0 12.127 4.877 12.127 11.297 0 6.081-4.684 11.064-10.57 11.897l-13.68 2.512V14.235zm19.807 62.208H14.168v-24.98h18.844c6.962 0 13.085 5.473 13.085 11.783 0 6.89-5.762 13.197-12.123 13.197z"/>
        <path fill="url(#h)" d="M47.187 41.051a25.91 25.91 0 0 0 5.401-15.702C52.581 11.061 41.048 0 26.29 0H6.157C2.302 0 0 3.57 0 7.492v75.055c0 3.687 2.509 7.496 6.234 7.732h27.74c14.283 0 26.29-12.487 26.29-27.239 0-9.156-5.282-17.367-13.077-21.989zm-33.02-26.816H26.29c6.963 0 12.127 4.877 12.127 11.297 0 6.081-4.684 11.064-10.57 11.897l-13.68 1.942V14.235zm19.807 62.208H14.168v-24.98h18.844c6.962 0 13.085 5.473 13.085 11.783 0 6.89-5.762 13.197-12.123 13.197z"/>
        <path fill="#fd9573" d="M47.187 41.051l-33.02 8.104v2.307h18.845c6.962 0 13.085 5.474 13.085 11.784 0 6.899-5.754 13.204-12.123 13.204H14.168v13.836h19.806c14.283 0 26.29-12.486 26.29-27.238 0-9.164-5.282-17.375-13.077-21.997z"/>
        <path fill="url(#i)" d="M47.125 41.124C31.576 31.937 11.593 35.317 0 49.094v21.643c5.803-11.85 17.957-19.346 31.25-19.275h2.007a12.568 12.568 0 0 1 6.004 1.327l7.864-11.665z"/>
        <path fill="url(#j)" d="M230.467 49.212l-1.213-6.313h-9.107c.106-.045.215-.08.326-.107L207.871 32.53a25.298 25.298 0 0 0-3.68 1.794 29.384 29.384 0 0 0-3.801 2.635c-8.65 6.841-12.234 15.987-12.729 26.827l.345 21.526c-.072-4.562 1.278-9.484 2.962-13.703a42.499 42.499 0 0 1 7.37-12.084c4.987-5.754 11.635-10.874 19.277-12.429 4.258-.87 9.203-.403 12.852 2.117z"/>
    </g>
</svg>
