<svg xmlns="http://www.w3.org/2000/svg" width="24" height="24" viewBox="0 0 24 24">
    <path fill="#212121" fill-rule="evenodd" d="M20.989 14.939l-1.632-.953a7.533 7.533 0 0 0 0-2.717l1.632-.952a.47.47 0 0 0 .21-.542 9.665 9.665 0 0 0-2.095-3.662.458.458 0 0 0-.567-.09l-1.632.953a7.212 7.212 0 0 0-2.329-1.359v-1.9a.463.463 0 0 0-.36-.453 9.533 9.533 0 0 0-4.183 0 .463.463 0 0 0-.36.453V5.62a7.44 7.44 0 0 0-2.33 1.359l-1.628-.952a.452.452 0 0 0-.567.089 9.607 9.607 0 0 0-2.095 3.662.465.465 0 0 0 .21.542l1.633.952a7.533 7.533 0 0 0 0 2.717l-1.632.953a.47.47 0 0 0-.211.541 9.665 9.665 0 0 0 2.095 3.662.458.458 0 0 0 .567.09l1.632-.953a7.212 7.212 0 0 0 2.33 1.359v1.904c0 .217.149.407.36.453a9.533 9.533 0 0 0 4.183 0 .463.463 0 0 0 .36-.453v-1.904a7.44 7.44 0 0 0 2.329-1.359l1.632.952a.452.452 0 0 0 .567-.089 9.607 9.607 0 0 0 2.095-3.662.48.48 0 0 0-.214-.545zm-8.865.785c-1.69 0-3.064-1.39-3.064-3.096 0-1.707 1.375-3.097 3.064-3.097 1.69 0 3.065 1.39 3.065 3.097s-1.375 3.096-3.065 3.096z"/>
</svg>
