<svg xmlns="http://www.w3.org/2000/svg" width="40" height="40" viewBox="0 0 40 40">
    <path fill="#fd9573" fill-rule="evenodd" d="M36.667 13.75v18.214c0 1.676-1.4 3.036-3.125 3.036H6.458c-1.725 0-3.125-1.36-3.125-3.036V13.75c0-1.676 1.4-3.036 3.125-3.036h5.73l.8-2.08c.456-1.183 1.621-1.967 2.923-1.967h8.171c1.302 0 2.467.784 2.923 1.967l.808 2.08h5.729c1.725 0 3.125 1.36 3.125 3.036zm-8.855 9.107c0-4.187-3.502-7.59-7.812-7.59-4.31 0-7.813 3.403-7.813 7.59 0 4.187 3.503 7.59 7.813 7.59s7.813-3.403 7.813-7.59zm-2.083 0c0 3.067-2.571 5.566-5.729 5.566s-5.73-2.499-5.73-5.566c0-3.067 2.572-5.565 5.73-5.565 3.158 0 5.73 2.498 5.73 5.565z"/>
</svg>
