<svg xmlns="http://www.w3.org/2000/svg" width="24" height="24" viewBox="0 0 24 24">
    <path fill="#CCC" fill-rule="evenodd" d="M12 2C6.476 2 2 6.476 2 12s4.476 10 10 10 10-4.476 10-10S17.524 2 12 2zm0 18.065A8.062 8.062 0 0 1 3.935 12 8.062 8.062 0 0 1 12 3.935 8.062 8.062 0 0 1 20.065 12 8.062 8.062 0 0 1 12 20.065zm2.492-4.21l-3.423-2.488a.487.487 0 0 1-.198-.391V6.355c0-.266.218-.484.484-.484h1.29c.266 0 .484.218.484.484v5.714l2.694 1.96c.217.156.262.459.104.677l-.758 1.044a.487.487 0 0 1-.677.105z"/>
</svg>
