<svg xmlns="http://www.w3.org/2000/svg" width="24" height="24" viewBox="0 0 24 24">
    <path fill="#fd9573" fill-rule="evenodd" d="M7.936 10.071c-.725 0-1.31.575-1.31 1.286 0 .711.585 1.286 1.31 1.286.724 0 1.31-.575 1.31-1.286 0-.711-.586-1.286-1.31-1.286zm4.584 0c-.724 0-1.31.575-1.31 1.286 0 .711.586 1.286 1.31 1.286.725 0 1.31-.575 1.31-1.286 0-.711-.585-1.286-1.31-1.286zm4.585 0c-.724 0-1.31.575-1.31 1.286 0 .711.586 1.286 1.31 1.286.725 0 1.31-.575 1.31-1.286 0-.711-.585-1.286-1.31-1.286zM12.52 3C6.732 3 2.04 6.74 2.04 11.357c0 1.913.816 3.664 2.166 5.075-.61 1.583-1.879 2.925-1.899 2.94a.95.95 0 0 0-.188 1.045.986.986 0 0 0 .904.583c2.518 0 4.503-1.033 5.695-1.86 1.183.365 2.46.574 3.802.574 5.789 0 10.48-3.74 10.48-8.357C23 6.741 18.309 3 12.52 3zm0 14.786c-1.093 0-2.173-.165-3.209-.486l-.93-.29-.797.555A8.866 8.866 0 0 1 5.23 18.73c.299-.486.59-1.033.814-1.615l.434-1.13-.843-.875c-.74-.776-1.63-2.057-1.63-3.753 0-3.544 3.82-6.428 8.515-6.428 4.696 0 8.515 2.884 8.515 6.428s-3.82 6.429-8.515 6.429z"/>
</svg>
