<svg xmlns="http://www.w3.org/2000/svg" width="24" height="24" viewBox="0 0 24 24">
    <path fill="#9E9E9E" fill-rule="evenodd" d="M12.126 7.074a5.054 5.054 0 0 1 5.053 5.052c0 .657-.131 1.274-.364 1.85l2.95 2.95a11.942 11.942 0 0 0 3.467-4.8c-1.748-4.436-6.063-7.579-11.116-7.579-1.415 0-2.769.253-4.022.708l2.183 2.182a4.904 4.904 0 0 1 1.85-.363zM2.021 4.314L4.325 6.62l.465.465a11.928 11.928 0 0 0-3.78 5.042c1.749 4.437 6.064 7.58 11.116 7.58a11.9 11.9 0 0 0 4.426-.85l.425.425 2.96 2.95 1.284-1.283L3.304 3.032 2.021 4.315zm5.588 5.59l1.567 1.565a2.85 2.85 0 0 0-.081.657 3.028 3.028 0 0 0 3.031 3.032c.223 0 .445-.03.657-.08l1.566 1.565a5.009 5.009 0 0 1-2.223.536 5.054 5.054 0 0 1-5.052-5.053c0-.798.202-1.546.535-2.223zm4.356-.79l3.183 3.184.02-.162a3.028 3.028 0 0 0-3.032-3.031l-.171.01z"/>
</svg>
