<svg xmlns="http://www.w3.org/2000/svg" width="24" height="24" viewBox="0 0 24 24">
    <g fill="none" fill-rule="evenodd">
        <path d="M0 0h24.253v24.253H0V0zm0 0h24.253v24.253H0V0zm0 0h24.253v24.253H0V0zm0 0h24.253v24.253H0V0z"/>
        <path d="M0 0h24.253v24.253H0z"/>
        <path fill="#9E9E9E" d="M12.126 4.547c-5.052 0-9.367 3.143-11.115 7.58 1.748 4.436 6.063 7.578 11.115 7.578 5.053 0 9.368-3.142 11.116-7.579-1.748-4.436-6.063-7.579-11.116-7.579zm0 12.632a5.054 5.054 0 0 1-5.052-5.053 5.054 5.054 0 0 1 5.052-5.052 5.054 5.054 0 0 1 5.053 5.052 5.054 5.054 0 0 1-5.053 5.053zm0-8.084a3.028 3.028 0 0 0-3.031 3.031 3.028 3.028 0 0 0 3.031 3.032 3.028 3.028 0 0 0 3.032-3.032 3.028 3.028 0 0 0-3.032-3.031z"/>
    </g>
</svg>
