<svg xmlns="http://www.w3.org/2000/svg" width="24" height="24" viewBox="0 0 24 24">
    <path fill="#212121" fill-rule="evenodd" d="M19.272 11.305c1.076 0 1.95.891 1.95 1.99v7.958c0 1.098-.874 1.99-1.95 1.99H4.98c-1.075 0-1.948-.892-1.948-1.99v-7.958c0-1.099.873-1.99 1.948-1.99h.975V8.321c0-3.473 2.769-6.3 6.171-6.3 3.403 0 6.172 2.827 6.172 6.3v2.984h.974zm-4.222 0V8.321c0-1.645-1.312-2.984-2.924-2.984-1.612 0-2.923 1.339-2.923 2.984v2.984h5.847zm-3.134 2.842a.8.8 0 0 0-.8.8V18.4a.8.8 0 0 0 .8.8h.42a.8.8 0 0 0 .8-.8v-3.453a.8.8 0 0 0-.8-.8h-.42z"/>
</svg>
