<svg xmlns="http://www.w3.org/2000/svg" width="24" height="24" viewBox="0 0 24 24">
    <path fill="#212121" fill-rule="evenodd" d="M22.35 5.702C21.08 5.193 19.807 5 18.536 5c-4.035 0-8.07 1.948-12.105 1.948-1.012 0-2.023-.122-3.035-.429a1.17 1.17 0 0 0-.34-.05c-.563 0-1.056.416-1.056.994v9.914c0 .395.237.769.617.92 1.271.51 2.543.703 3.814.703 4.035 0 8.07-1.948 12.106-1.948 1.012 0 2.023.122 3.035.428.114.035.228.05.339.05.564 0 1.057-.415 1.057-.993V6.623a.993.993 0 0 0-.618-.921zM3.573 8.132c.659.157 1.347.236 2.054.279-.192.918-1.039 1.61-2.054 1.61v-1.89zm0 8.906v-1.493c1.126 0 2.037.852 2.087 1.919a8.245 8.245 0 0 1-2.087-.426zM12.483 15c-1.447 0-2.62-1.343-2.62-3s1.173-3 2.62-3c1.448 0 2.622 1.343 2.622 3s-1.174 3-2.621 3zm8.912.868a11.77 11.77 0 0 0-1.78-.264c.192-.815.901-1.433 1.78-1.54v1.804zm0-7.378c-1.012-.123-1.798-.928-1.829-1.924.64.068 1.248.195 1.829.396V8.49z"/>
</svg>
