<svg xmlns="http://www.w3.org/2000/svg" width="40" height="40" viewBox="0 0 40 40">
    <path fill="#fd9573" fill-rule="evenodd" d="M32.383 17.222a8 8 0 0 0-2.54.39l-1.97-3.098h4.935c.796 0 1.437-.604 1.437-1.354v-1.806c0-.75-.64-1.354-1.437-1.354h-2.713c-.407 0-.796.164-1.066.446l-2.245 2.353-1.366-2.144A1.468 1.468 0 0 0 24.185 10h-4.791c-.527 0-.958.406-.958.903v.903c0 .496.431.902.958.902h3.976l1.15 1.806h-9.204c-1.06-1.304-2.689-2.257-5.982-2.257H6.01c-.808 0-1.485.62-1.467 1.382.012.734.653 1.326 1.437 1.326h3.354c1.467 0 2.317.615 2.862 1.4l-.677 1.156a8.11 8.11 0 0 0-2.473-.293c-4.03.135-7.282 3.244-7.377 7.047-.096 4.068 3.371 7.391 7.665 7.391 3.569 0 6.569-2.302 7.425-5.416h5.042c.82 0 1.473-.643 1.437-1.416-.125-2.658 1.048-5.287 3.366-7.053l.748 1.173c-1.652 1.337-2.7 3.324-2.682 5.541.03 3.927 3.425 7.137 7.593 7.171 4.287.04 7.773-3.244 7.737-7.284-.042-3.927-3.45-7.132-7.617-7.16zM9.333 28.958c-2.64 0-4.79-2.026-4.79-4.514 0-2.488 2.15-4.514 4.79-4.514.252 0 .504.017.75.057L7.596 24.24c-.527.903.168 2.009 1.258 2.009h4.868c-.742 1.59-2.431 2.708-4.39 2.708zm27.78-4.266c-.131 2.291-2.096 4.142-4.52 4.26-2.761.141-5.055-1.935-5.055-4.508 0-1.207.503-2.302 1.323-3.109l2.959 4.65c.27.428.862.564 1.317.31l.82-.463a.877.877 0 0 0 .33-1.241l-2.91-4.565c.311-.062.628-.09.952-.09 2.73-.006 4.928 2.155 4.784 4.756z"/>
</svg>
