<svg xmlns="http://www.w3.org/2000/svg" width="24" height="24" viewBox="0 0 24 24">
    <path fill="#fd9573" fill-rule="evenodd" d="M19.43 10.333a4.8 4.8 0 0 0-1.524.234l-1.182-1.859h2.96c.479 0 .863-.362.863-.812V6.812c0-.45-.384-.812-.862-.812h-1.628a.887.887 0 0 0-.64.267L16.07 7.68l-.82-1.286A.88.88 0 0 0 14.51 6h-2.874c-.316 0-.574.244-.574.542v.541c0 .298.258.542.574.542h2.386l.69 1.083H9.19c-.636-.782-1.614-1.354-3.59-1.354H3.606c-.485 0-.891.373-.88.83.007.44.391.795.862.795H5.6c.88 0 1.39.37 1.718.84l-.406.694a4.866 4.866 0 0 0-1.484-.176c-2.418.08-4.37 1.946-4.427 4.228C.944 17.005 3.024 19 5.601 19c2.14 0 3.94-1.381 4.454-3.25h3.026c.492 0 .884-.386.862-.85-.075-1.594.629-3.172 2.02-4.232l.448.705c-.991.802-1.62 1.994-1.61 3.324.019 2.356 2.056 4.282 4.557 4.303 2.572.023 4.663-1.947 4.642-4.37-.025-2.357-2.07-4.28-4.57-4.297zM5.6 17.375c-1.584 0-2.874-1.216-2.874-2.708 0-1.493 1.29-2.709 2.874-2.709.151 0 .302.01.45.034l-1.492 2.553c-.316.541.1 1.205.755 1.205h2.92c-.445.955-1.458 1.625-2.633 1.625zm16.668-2.56c-.079 1.375-1.258 2.485-2.713 2.556-1.656.085-3.032-1.16-3.032-2.704 0-.725.302-1.382.794-1.866l1.775 2.79a.598.598 0 0 0 .79.186l.493-.278a.526.526 0 0 0 .197-.744l-1.746-2.74c.187-.036.377-.053.571-.053 1.639-.004 2.957 1.293 2.871 2.853z"/>
</svg>
