<svg xmlns="http://www.w3.org/2000/svg" width="32" height="32" viewBox="0 0 32 32">
    <path fill="#FFF" fill-rule="evenodd" d="M25.906 13.778a6.4 6.4 0 0 0-2.031.311l-1.576-2.478h3.947c.637 0 1.15-.483 1.15-1.083V9.083c0-.6-.513-1.083-1.15-1.083h-2.17c-.326 0-.637.13-.853.357l-1.796 1.882-1.092-1.715A1.174 1.174 0 0 0 19.348 8h-3.833c-.421 0-.766.325-.766.722v.722c0 .398.345.723.766.723h3.181l.92 1.444h-7.363c-.848-1.043-2.151-1.805-4.786-1.805H4.808c-.647 0-1.188.496-1.174 1.105.01.587.523 1.061 1.15 1.061h2.683c1.174 0 1.854.492 2.29 1.12l-.542.925a6.488 6.488 0 0 0-1.978-.235c-3.224.109-5.825 2.596-5.902 5.638-.077 3.254 2.697 5.913 6.132 5.913 2.855 0 5.255-1.842 5.94-4.333h4.034c.656 0 1.179-.515 1.15-1.133-.1-2.126.838-4.23 2.692-5.642l.599.938c-1.322 1.07-2.16 2.66-2.146 4.433.024 3.142 2.74 5.71 6.074 5.737 3.43.032 6.219-2.595 6.19-5.827-.034-3.142-2.76-5.706-6.094-5.728zm-18.44 9.388c-2.112 0-3.832-1.62-3.832-3.61 0-1.991 1.72-3.612 3.833-3.612.201 0 .402.014.599.045l-1.988 3.404C5.656 20.115 6.212 21 7.084 21h3.894c-.594 1.273-1.945 2.166-3.511 2.166zm22.225-3.412c-.106 1.833-1.677 3.313-3.617 3.408-2.209.113-4.044-1.548-4.044-3.607 0-.966.403-1.841 1.06-2.487l2.366 3.72c.215.343.69.451 1.054.248l.656-.37a.702.702 0 0 0 .264-.993L25.1 16.02c.25-.05.503-.072.762-.072 2.185-.005 3.943 1.724 3.828 3.805z"/>
</svg>
