<svg xmlns="http://www.w3.org/2000/svg" width="24" height="24" viewBox="0 0 24 24">
    <path fill="#212121" fill-rule="evenodd" d="M2.714 6.306h18.572A.725.725 0 0 0 22 5.571V3.735A.725.725 0 0 0 21.286 3H2.714A.725.725 0 0 0 2 3.735V5.57c0 .406.32.735.714.735zm0 7.347h18.572a.725.725 0 0 0 .714-.735v-1.836a.725.725 0 0 0-.714-.735H2.714a.725.725 0 0 0-.714.735v1.836c0 .406.32.735.714.735zm0 7.347h18.572a.725.725 0 0 0 .714-.735V18.43a.725.725 0 0 0-.714-.735H2.714a.725.725 0 0 0-.714.735v1.836c0 .406.32.735.714.735z"/>
</svg>
