<svg xmlns="http://www.w3.org/2000/svg" width="24" height="24" viewBox="0 0 24 24">
    <path fill="#FFF" fill-rule="evenodd" d="M18.14 23c-.327 0-.651-.063-.956-.185a26.98 26.98 0 0 1-9.063-5.956 26.974 26.974 0 0 1-5.938-9.05 2.573 2.573 0 0 1 .563-2.765l2.298-2.298a2.555 2.555 0 0 1 3.607 0L10.5 4.594a2.548 2.548 0 0 1 0 3.609L9.447 9.256a.94.94 0 0 0-.105 1.214c.735.985 1.54 1.914 2.41 2.78a24.91 24.91 0 0 0 2.781 2.412.94.94 0 0 0 1.213-.105l1.045-1.045a2.61 2.61 0 0 1 3.607 0l1.857 1.857a2.556 2.556 0 0 1 0 3.609l-2.298 2.298A2.547 2.547 0 0 1 18.14 23zM6.82 3.606a.94.94 0 0 0-.667.273L3.879 6.178a.965.965 0 0 0-.201 1.036 25.35 25.35 0 0 0 5.552 8.552 25.358 25.358 0 0 0 8.517 5.626.948.948 0 0 0 1.028-.209l2.298-2.298a.949.949 0 0 0 0-1.335l-1.856-1.856a.972.972 0 0 0-1.333 0l-1.045 1.045a2.555 2.555 0 0 1-3.31.257 26.517 26.517 0 0 1-2.957-2.54 26.682 26.682 0 0 1-2.547-2.958 2.556 2.556 0 0 1 .257-3.311l1.052-1.053a.949.949 0 0 0 0-1.334L7.51 3.879a.94.94 0 0 0-.69-.273z"/>
</svg>
