<svg xmlns="http://www.w3.org/2000/svg" width="24" height="24" viewBox="0 0 24 24">
    <path fill="#9E9E9E" fill-rule="evenodd" d="M22.961 13.3l-6.736 6.596c-.602.59-1.645.177-1.645-.667v-3.77H9.127a.95.95 0 0 1-.963-.943v-3.77a.95.95 0 0 1 .963-.942h5.453v-3.77c0-.84 1.039-1.256 1.645-.667l6.736 6.597a.937.937 0 0 1 0 1.335zm-12.23 6.4v-1.57a.478.478 0 0 0-.481-.472H6.88c-.71 0-1.283-.562-1.283-1.257v-7.54c0-.694.573-1.256 1.283-1.256h3.369a.478.478 0 0 0 .48-.471v-1.57a.478.478 0 0 0-.48-.472H6.88c-2.125 0-3.85 1.688-3.85 3.77v7.54c0 2.08 1.725 3.77 3.85 3.77h3.369a.478.478 0 0 0 .48-.472z"/>
</svg>
