<svg xmlns="http://www.w3.org/2000/svg" width="36" height="36" viewBox="0 0 36 36">
    <path fill="#9E9E9E" fill-rule="evenodd" d="M13.722 12.732l-.778.113-8.194 1.186a.279.279 0 0 0-.163.476l6.497 6.284-.135.782-1.402 8.097c-.038.225.214.405.43.291L18 25.776l.694.362 7.329 3.823c.215.113.468-.068.43-.29l-1.537-8.88.57-.552 5.928-5.733c.166-.16.074-.441-.165-.476l-8.971-1.298-.35-.704-3.66-7.366c-.108-.215-.428-.216-.534-.003l-4.012 8.073zm2.669-8.74c.661-1.33 2.562-1.314 3.218 0l3.662 7.368 8.193 1.186c1.469.211 2.057 2.01.992 3.039l-5.927 5.732 1.402 8.099c.252 1.463-1.301 2.554-2.602 1.875L18 27.468l-7.329 3.823c-1.3.685-2.854-.412-2.602-1.875l1.402-8.099-5.927-5.732c-1.065-1.03-.477-2.828.992-3.04l8.193-1.185 3.662-7.369z"/>
</svg>
