<svg xmlns="http://www.w3.org/2000/svg" width="232" height="112" viewBox="0 0 232 112">
    <defs>
        <radialGradient id="a" cx="-42.723%" cy="124.183%" r="138.751%" fx="-42.723%" fy="124.183%" gradientTransform="scale(1 .98966) rotate(-17.475 -.385 1.248)">
            <stop offset="0%" stop-color="#B55636"/>
            <stop offset="48.572%" stop-color="#EE7D58"/>
            <stop offset="100%" stop-color="#FD9573"/>
        </radialGradient>
        <radialGradient id="b" cx="-8.665%" cy="46.082%" r="65.151%" fx="-8.665%" fy="46.082%" gradientTransform="matrix(1 0 0 .68472 0 .145)">
            <stop offset="3%" stop-color="#2E4E4A"/>
            <stop offset="32%" stop-color="#2C9A93"/>
            <stop offset="48%" stop-color="#3BABA4"/>
            <stop offset="71%" stop-color="#4ABCB6"/>
            <stop offset="87%" stop-color="#4FC2BC"/>
        </radialGradient>
        <radialGradient id="c" cx="31.004%" cy="11.557%" r="68.045%" fx="31.004%" fy="11.557%" gradientTransform="matrix(.565 .56496 -.94508 .44312 .244 -.11)">
            <stop offset="0%" stop-color="#2E4E4A"/>
            <stop offset="3.159%" stop-color="#95452B"/>
            <stop offset="16.84%" stop-color="#B75737"/>
            <stop offset="88.844%" stop-color="#FD9573"/>
            <stop offset="100%" stop-color="#FD9573"/>
        </radialGradient>
        <radialGradient id="d" cx="-42.723%" cy="124.183%" r="363.879%" fx="-42.723%" fy="124.183%" gradientTransform="scale(1 .3823) rotate(-63.214 1.203 2.245)">
            <stop offset="0%" stop-color="#B55636"/>
            <stop offset="48.572%" stop-color="#EE7D58"/>
            <stop offset="100%" stop-color="#FD9573"/>
        </radialGradient>
        <radialGradient id="e" cx="41.447%" cy="22.108%" r="50.981%" fx="41.447%" fy="22.108%" gradientTransform="matrix(.74179 0 0 1 .107 0)">
            <stop offset="0%" stop-color="#2E4E4A"/>
            <stop offset="36%" stop-color="#2C9A93"/>
            <stop offset="48%" stop-color="#32A19A" stop-opacity=".83"/>
            <stop offset="72%" stop-color="#41B2AB" stop-opacity=".41"/>
            <stop offset="93%" stop-color="#4FC2BC" stop-opacity="0"/>
        </radialGradient>
        <radialGradient id="f" cx="31.809%" cy="7.54%" r="58.035%" fx="31.809%" fy="7.54%" gradientTransform="matrix(.65624 .4662 -.36033 .92177 .137 -.142)">
            <stop offset="0%" stop-color="#C76545"/>
            <stop offset="12.784%" stop-color="#95452B"/>
            <stop offset="28.486%" stop-color="#B75737"/>
            <stop offset="40.987%" stop-color="#D77352"/>
            <stop offset="89.792%" stop-color="#FD9573"/>
            <stop offset="100%" stop-color="#FD9573"/>
        </radialGradient>
        <radialGradient id="g" cx="36.215%" cy="60.894%" r="47.075%" fx="36.215%" fy="60.894%" gradientTransform="matrix(1 0 0 .66822 0 .202)">
            <stop offset="3%" stop-color="#2E4E4A"/>
            <stop offset="11%" stop-color="#2D6964"/>
            <stop offset="21%" stop-color="#2D847E"/>
            <stop offset="30%" stop-color="#2C948E"/>
            <stop offset="37%" stop-color="#2C9A93"/>
            <stop offset="51%" stop-color="#33A29C" stop-opacity=".79"/>
            <stop offset="84%" stop-color="#46B7B1" stop-opacity=".26"/>
            <stop offset="99%" stop-color="#4FC2BC" stop-opacity="0"/>
        </radialGradient>
        <radialGradient id="h" cx="32.934%" cy="52.555%" r="61.168%" fx="32.934%" fy="52.555%" gradientTransform="matrix(.94934 .21 -.49604 1.00132 .277 -.07)">
            <stop offset="0%" stop-color="#C56343"/>
            <stop offset="14.39%" stop-color="#CB6948"/>
            <stop offset="43.54%" stop-color="#F38C6A"/>
            <stop offset="63.645%" stop-color="#FD9978"/>
            <stop offset="73.665%" stop-color="#FD9D7E"/>
            <stop offset="100%" stop-color="#FD9573"/>
        </radialGradient>
        <radialGradient id="i" cx="-42.723%" cy="124.183%" r="141.759%" fx="-42.723%" fy="124.183%" gradientTransform="scale(1 .81182) rotate(-20.996 .35 1.386)">
            <stop offset="0%" stop-color="#B55636"/>
            <stop offset="48.572%" stop-color="#EE7D58"/>
            <stop offset="100%" stop-color="#FD9573"/>
        </radialGradient>
    </defs>
    <g fill="none" fill-rule="evenodd">
        <path fill="url(#a)" fill-rule="nonzero" d="M72.92 18.737c-3.914 0-7.017-3.085-7.017-6.723v-.55c.085-3.714 3.151-6.68 6.905-6.68 3.753 0 6.82 2.966 6.905 6.68v.55c-.056 3.69-3.065 6.668-6.793 6.723z"/>
        <path fill="#FD9573" d="M72.92 83.433c-3.843.03-6.984-3.029-7.017-6.833V34.058c0-3.748 3.117-6.724 7.017-6.724 3.742.02 6.77 3.02 6.786 6.724V76.6c-.01 3.725-3.024 6.76-6.786 6.833z"/>
        <path fill="#4FC2BC" fill-rule="nonzero" d="M231.683 56c-.02 15.392-12.62 27.864-28.17 27.884a29.434 29.434 0 0 1-15.7-4.639v25.788a6.656 6.656 0 0 1-3.323 5.905 6.8 6.8 0 0 1-6.829 0 6.656 6.656 0 0 1-3.323-5.905V34.938a6.623 6.623 0 0 1 2.004-4.698 6.761 6.761 0 0 1 4.775-1.916c2.93.02 5.525 1.881 6.458 4.631a27.997 27.997 0 0 1 15.937-4.85c15.555.02 28.158 12.5 28.171 27.895zm-13.471 0c.001-5.885-3.58-11.191-9.072-13.444-5.493-2.254-11.816-1.01-16.02 3.151a14.441 14.441 0 0 0-3.188 15.856c2.275 5.438 7.635 8.983 13.58 8.983 8.104-.031 14.666-6.525 14.7-14.546z"/>
        <path fill="url(#b)" fill-rule="nonzero" d="M231.683 56c-.02 15.392-12.62 27.864-28.17 27.884a29.434 29.434 0 0 1-15.7-4.639v25.788a6.656 6.656 0 0 1-3.323 5.905 6.8 6.8 0 0 1-6.829 0 6.656 6.656 0 0 1-3.323-5.905V34.938a6.623 6.623 0 0 1 2.004-4.698 6.761 6.761 0 0 1 4.775-1.916c2.93.02 5.525 1.881 6.458 4.631a27.997 27.997 0 0 1 15.937-4.85c15.555.02 28.158 12.5 28.171 27.895zm-13.471 0c.001-5.885-3.58-11.191-9.072-13.444-5.493-2.254-11.816-1.01-16.02 3.151a14.441 14.441 0 0 0-3.188 15.856c2.275 5.438 7.635 8.983 13.58 8.983 8.104-.031 14.666-6.525 14.7-14.546z"/>
        <path fill="#4FC2BC" fill-rule="nonzero" d="M231.683 56c-.013-15.396-12.616-27.875-28.17-27.894-.894 0-1.78.049-2.644.13-.207 0-.41.046-.616.07-.75.085-1.494.194-2.224.335l-.306.06c-12.009 2.494-21.005 12.396-22.24 24.48-1.236 12.083 5.574 23.568 16.835 28.392l.448.187c.627.257 1.27.483 1.918.704.27.088.541.18.815.258.652.192 1.314.361 1.986.507.313.067.633.12.953.18.545.098 1.096.182 1.651.25.289.035.573.07.861.098.847.074 1.698.127 2.562.127 15.55-.02 28.152-12.492 28.171-27.884zm-28.17 14.546c-5.946 0-11.306-3.545-13.581-8.983a14.441 14.441 0 0 1 3.188-15.856c4.204-4.16 10.527-5.405 16.02-3.151 5.493 2.253 9.073 7.559 9.072 13.444a14.46 14.46 0 0 1-4.307 10.283 14.762 14.762 0 0 1-10.393 4.252v.01z"/>
        <path fill="url(#c)" fill-rule="nonzero" d="M231.683 56c-.02 15.392-12.62 27.864-28.17 27.884a29.434 29.434 0 0 1-15.7-4.639v25.788a6.656 6.656 0 0 1-3.323 5.905 6.8 6.8 0 0 1-6.829 0 6.656 6.656 0 0 1-3.323-5.905V34.938a6.623 6.623 0 0 1 2.004-4.698 6.761 6.761 0 0 1 4.775-1.916c2.93.02 5.525 1.881 6.458 4.631a27.997 27.997 0 0 1 15.937-4.85c15.555.02 28.158 12.5 28.171 27.895zm-13.471 0c.001-5.885-3.58-11.191-9.072-13.444-5.493-2.254-11.816-1.01-16.02 3.151a14.441 14.441 0 0 0-3.188 15.856c2.275 5.438 7.635 8.983 13.58 8.983 8.104-.031 14.666-6.525 14.7-14.546z"/>
        <path fill="#4FC2BC" fill-rule="nonzero" d="M187.543 51.453l.356-17.219c0-1.585-.99-2.87-2.004-3.952a6.812 6.812 0 0 0-7.331-1.463 6.693 6.693 0 0 0-4.208 6.12v28.81"/>
        <path fill="url(#d)" fill-rule="nonzero" d="M187.543 51.453l.356-17.219c0-1.585-.99-2.87-2.004-3.952a6.812 6.812 0 0 0-7.331-1.463 6.693 6.693 0 0 0-4.208 6.12v28.81"/>
        <path fill="#90C95F" fill-rule="nonzero" d="M213.764 45.6l-1.125-5.85h-8.447c.098-.042.199-.075.302-.1l-11.688-9.509a23.475 23.475 0 0 0-3.413 1.663 27.255 27.255 0 0 0-3.526 2.44c-8.024 6.34-11.347 14.814-11.807 24.859l.32 19.945c-.067-4.226 1.186-8.787 2.748-12.697a39.372 39.372 0 0 1 6.835-11.196c4.626-5.333 10.792-10.077 17.88-11.517 3.95-.807 8.537-.374 11.92 1.961z"/>
        <path fill="#FD9573" d="M203.512 28.106c-.893 0-1.779.049-2.643.13-.207 0-.41.046-.616.07-.75.085-1.494.194-2.224.335-.103.021-1.448.296-1.548.32-1.606.384-3.17.924-4.668 1.614v16.62c4.171-5.443 11.607-7.279 17.872-4.414 6.265 2.866 9.672 9.66 8.188 16.333-1.484 6.671-7.459 11.422-14.36 11.418-4.786 0-11.7 10.798-11.7 10.798.17.078.334.166.505.24l.448.186c.627.258 1.27.483 1.918.705.27.088.541.18.815.257.652.193 1.314.362 1.986.507.313.067.633.12.953.18.545.098 1.096.183 1.651.25.289.035.573.07.861.098.847.074 1.698.127 2.562.127 15.559 0 28.171-12.484 28.171-27.884s-12.612-27.883-28.17-27.883v-.007z"/>
        <path fill="#4FC2BC" fill-rule="nonzero" d="M164.332 49.706v27.12a6.435 6.435 0 0 1-1.873 4.68 6.57 6.57 0 0 1-4.695 1.934 6.762 6.762 0 0 1-4.784-1.911 6.623 6.623 0 0 1-2.01-4.703v-27.45c0-4.298-3.896-7.605-8.46-7.605-4.904 0-8.797 3.307-8.797 7.604V76.82c0 3.621-2.966 6.558-6.625 6.558-3.66 0-6.626-2.937-6.626-6.558V49.375c0-4.297-3.914-7.604-8.686-7.604-4.771 0-8.685 3.307-8.685 7.604V77.15a6.508 6.508 0 0 1-1.968 4.618 6.645 6.645 0 0 1-4.694 1.884c-3.558 0-6.682-2.977-6.682-6.502V35.048c0-3.639 3.117-6.724 6.682-6.724a6.235 6.235 0 0 1 5.12 2.645 22.964 22.964 0 0 1 10.245-2.423 22.64 22.64 0 0 1 15.347 5.97c3.896-3.748 9.252-5.952 15.368-5.952 11.913 0 21.823 9.368 21.823 20.829v.313z"/>
        <path fill="url(#e)" fill-rule="nonzero" d="M164.332 49.706v27.12a6.435 6.435 0 0 1-1.873 4.68 6.57 6.57 0 0 1-4.695 1.934 6.762 6.762 0 0 1-4.784-1.911 6.623 6.623 0 0 1-2.01-4.703v-27.45c0-4.298-3.896-7.605-8.46-7.605-4.904 0-8.797 3.307-8.797 7.604V76.82c0 3.621-2.966 6.558-6.625 6.558-3.66 0-6.626-2.937-6.626-6.558V49.375c0-4.297-3.914-7.604-8.686-7.604-4.771 0-8.685 3.307-8.685 7.604V77.15a6.508 6.508 0 0 1-1.968 4.618 6.645 6.645 0 0 1-4.694 1.884c-3.558 0-6.682-2.977-6.682-6.502V35.048c0-3.639 3.117-6.724 6.682-6.724a6.235 6.235 0 0 1 5.12 2.645 22.964 22.964 0 0 1 10.245-2.423 22.64 22.64 0 0 1 15.347 5.97c3.896-3.748 9.252-5.952 15.368-5.952 11.913 0 21.823 9.368 21.823 20.829v.313z"/>
        <path fill="#4FC2BC" fill-rule="nonzero" d="M127.03 34.403a22.64 22.64 0 0 0-15.254-5.857c-3.559.004-7.067.834-10.244 2.423a6.235 6.235 0 0 0-5.103-2.645c-3.558 0-6.682 3.085-6.682 6.724V77.15c0 3.522 3.117 6.502 6.682 6.502a6.646 6.646 0 0 0 4.705-1.878 6.508 6.508 0 0 0 1.974-4.624V49.375c0-4.297 3.897-7.604 8.686-7.604 4.79 0 8.686 3.307 8.686 7.604V76.82a6.452 6.452 0 0 0 1.876 4.661 6.588 6.588 0 0 0 4.675 1.942V34.403z"/>
        <path fill="url(#f)" fill-rule="nonzero" d="M164.332 49.706v27.12a6.435 6.435 0 0 1-1.873 4.68 6.57 6.57 0 0 1-4.695 1.934 6.762 6.762 0 0 1-4.784-1.911 6.623 6.623 0 0 1-2.01-4.703v-27.45c0-4.298-3.896-7.605-8.46-7.605-4.904 0-8.797 3.307-8.797 7.604V76.82c0 3.621-2.966 6.558-6.625 6.558-3.66 0-6.626-2.937-6.626-6.558V49.375c0-4.297-3.914-7.604-8.686-7.604-4.771 0-8.685 3.307-8.685 7.604V77.15a6.508 6.508 0 0 1-1.968 4.618 6.645 6.645 0 0 1-4.694 1.884c-3.558 0-6.682-2.977-6.682-6.502V35.048c0-3.639 3.117-6.724 6.682-6.724a6.235 6.235 0 0 1 5.12 2.645 22.964 22.964 0 0 1 10.245-2.423 22.64 22.64 0 0 1 15.347 5.97c3.896-3.748 9.252-5.952 15.368-5.952 11.913 0 21.823 9.368 21.823 20.829v.313z"/>
        <path fill="#FD9573" fill-rule="nonzero" d="M134.41 46.34v.003c-.314 1.104-.676 1.882-.676 3.254v27.444c0 3.621-2.966 6.557-6.625 6.557-3.66 0-6.626-2.936-6.626-6.557V49.597a7.023 7.023 0 0 0-1.163-4.03s-.947-2.236-5.12-3.5h.003c-1.05-.156-2.123-.268-3.085-.278-9.881-.106-18.094 7.206-21.392 16.021V45.592c1.695-6.265 5.987-11.53 11.817-14.493 0 0 4.18-2.535 11.205-2.528 0 0 8.48.155 14.407 5.987 3.323 3.264 6.105 7.137 7.255 11.78v.003z"/>
        <path fill="#4FC2BC" fill-rule="nonzero" d="M43.767 38.038a23.992 23.992 0 0 0 5.01-14.55C48.77 10.25 38.074 0 24.385 0H5.71C2.135 0 0 3.307 0 6.942v69.546c0 3.416 2.327 6.945 5.782 7.163h25.73c13.248 0 24.385-11.57 24.385-25.238 0-8.485-4.9-16.092-12.13-20.375zM13.14 13.19h11.244c6.458 0 11.248 4.519 11.248 10.467 0 5.636-4.345 10.253-9.803 11.024L13.14 37.01V13.19zM31.512 70.83H13.141V47.685h17.478c6.458 0 12.137 5.071 12.137 10.918 0 6.385-5.344 12.228-11.244 12.228z"/>
        <path fill="#90C95F" fill-rule="nonzero" d="M49.937 43.19a25.911 25.911 0 0 0-6.17-5.152 23.992 23.992 0 0 0 5.01-14.55C48.77 10.25 38.074 0 24.385 0H5.71C2.135 0 0 3.307 0 6.942V43.19h49.937zm-36.796-30h11.244c6.458 0 11.248 4.519 11.248 10.467 0 5.636-4.345 10.253-9.803 11.024L13.14 37.01V13.19z"/>
        <path fill="#4FC2BC" fill-rule="nonzero" d="M49.937 43.19a25.911 25.911 0 0 0-6.17-5.152 23.992 23.992 0 0 0 5.01-14.55C48.77 10.25 38.074 0 24.385 0H5.71C2.135 0 0 3.307 0 6.942v39.446l49.937-3.198zm-36.796-30h11.244c6.458 0 11.248 4.519 11.248 10.467 0 5.636-4.345 10.253-9.803 11.024L13.14 37.01V13.19z"/>
        <path fill="url(#g)" fill-rule="nonzero" d="M43.767 38.038a23.992 23.992 0 0 0 5.01-14.55C48.77 10.25 38.074 0 24.385 0H5.71C2.135 0 0 3.307 0 6.942v69.546c0 3.416 2.327 6.945 5.782 7.163h25.73c13.248 0 24.385-11.57 24.385-25.238 0-8.485-4.9-16.092-12.13-20.375zM13.14 13.19h11.244c6.458 0 11.248 4.519 11.248 10.467 0 5.636-4.345 10.253-9.803 11.024L13.14 37.01V13.19zM31.512 70.83H13.141V47.685h17.478c6.458 0 12.137 5.071 12.137 10.918 0 6.385-5.344 12.228-11.244 12.228z"/>
        <path fill="url(#h)" fill-rule="nonzero" d="M43.767 38.038a23.992 23.992 0 0 0 5.01-14.55C48.77 10.25 38.074 0 24.385 0H5.71C2.135 0 0 3.307 0 6.942v69.546c0 3.416 2.327 6.945 5.782 7.163h25.73c13.248 0 24.385-11.57 24.385-25.238 0-8.485-4.9-16.092-12.13-20.375zM13.14 13.19h11.244c6.458 0 11.248 4.519 11.248 10.467 0 5.636-4.345 10.253-9.803 11.024l-12.69 1.8V13.19zM31.512 70.83H13.141V47.685h17.478c6.458 0 12.137 5.071 12.137 10.918 0 6.385-5.344 12.228-11.244 12.228z"/>
        <path fill="#FD9573" fill-rule="nonzero" d="M43.767 38.038L13.14 45.547v2.138h17.478c6.458 0 12.137 5.071 12.137 10.918 0 6.392-5.337 12.235-11.244 12.235H13.141v12.82h18.371c13.248 0 24.385-11.57 24.385-25.238 0-8.492-4.9-16.1-12.13-20.382z"/>
        <path fill="#FD9573" fill-rule="nonzero" d="M43.71 38.105C29.288 29.592 10.753 32.724 0 45.49v20.055c5.383-10.98 16.656-17.927 28.986-17.86h1.86c1.932-.057 3.846.365 5.57 1.229l7.294-10.81z"/>
        <path fill="url(#i)" fill-rule="nonzero" d="M213.764 45.6l-1.125-5.85h-8.447c.098-.042.199-.075.302-.1l-11.688-9.509a23.475 23.475 0 0 0-3.413 1.663 27.255 27.255 0 0 0-3.526 2.44c-8.024 6.34-11.347 14.814-11.807 24.859l.32 19.945c-.067-4.226 1.186-8.787 2.748-12.697a39.372 39.372 0 0 1 6.835-11.196c4.626-5.333 10.792-10.077 17.88-11.517 3.95-.807 8.537-.374 11.92 1.961z"/>
    </g>
</svg>
