<svg xmlns="http://www.w3.org/2000/svg" width="373.126" height="485.581" viewBox="0 0 373.126242 485.580685">
    <defs>
        <radialGradient id="a" cx="36.215%" cy="60.894%" r="47.075%" fx="36.215%" fy="60.894%" gradientTransform="matrix(1 0 0 .6619 0 .206)">
            <stop offset="3%" stop-color="#2E4E4A"/>
            <stop offset="11%" stop-color="#2D6964"/>
            <stop offset="21%" stop-color="#2D847E"/>
            <stop offset="30%" stop-color="#2C948E"/>
            <stop offset="37%" stop-color="#2C9A93"/>
            <stop offset="51%" stop-color="#33A29C" stop-opacity=".79"/>
            <stop offset="84%" stop-color="#46B7B1" stop-opacity=".26"/>
            <stop offset="99%" stop-color="#fd9573" stop-opacity="0"/>
        </radialGradient>
        <radialGradient id="b" cx="63.435%" cy="51.341%" r="43.625%" fx="63.435%" fy="51.341%" gradientTransform="matrix(1 0 0 .6619 0 .174)">
            <stop offset="0%" stop-color="#2E4E4A"/>
            <stop offset="38%" stop-color="#2C9A93"/>
            <stop offset="38%" stop-color="#2C9A93"/>
            <stop offset="65%" stop-color="#3FAFA9" stop-opacity=".46"/>
            <stop offset="84%" stop-color="#4ABDB7" stop-opacity=".13"/>
            <stop offset="93%" stop-color="#fd9573" stop-opacity="0"/>
        </radialGradient>
        <radialGradient id="c" cx="-80.495%" cy="161.626%" r="187.12%" fx="-80.495%" fy="161.626%" gradientTransform="matrix(.74394 0 0 1 -.206 0)">
            <stop offset="0%" stop-color="#2E4E4A"/>
            <stop offset="37%" stop-color="#2C9A93"/>
            <stop offset="70%" stop-color="#3FB0A9"/>
            <stop offset="93%" stop-color="#fd9573"/>
        </radialGradient>
    </defs>
    <g fill="none" fill-rule="nonzero" opacity=".08" style="mix-blend-mode:multiply">
        <path fill="#fd9573" d="M261.105 206.392a125.266 125.266 0 0 0 9.493-79.208c-14.32-67.196-79.16-107.789-147.988-93.16L28.716 53.984C10.735 57.805 3.568 76.873 7.49 95.323l75.036 353.018c3.686 17.342 19.195 32.768 36.803 30.184l129.373-27.5c66.61-14.158 110.127-84.79 95.379-154.174-9.155-43.068-42-76.447-82.976-90.46zm-180.8-93.397l56.536-12.017c32.473-6.903 61.43 10.916 67.849 41.112 6.08 28.604-10.784 56.686-37.397 66.435l-61.289 25.378-25.7-120.908zM234.87 385.95l-92.374 19.635-24.974-117.494 87.883-18.68c32.473-6.902 66.5 12.773 72.808 42.45 6.89 32.412-13.68 67.784-43.343 74.09z"/>
        <path fill="#90C95F" d="M297.689 225.953a133.5 133.5 0 0 0-36.584-19.561 125.266 125.266 0 0 0 9.493-79.208c-14.32-67.196-79.16-107.789-147.988-93.16L28.716 53.984C10.735 57.805 3.568 76.873 7.49 95.323l39.11 184 251.089-53.37zM80.304 112.995l56.537-12.017c32.473-6.903 61.43 10.916 67.849 41.112 6.08 28.604-10.784 56.686-37.397 66.435l-61.289 25.378-25.7-120.908z"/>
        <path fill="#fd9573" d="M297.689 225.953a133.5 133.5 0 0 0-36.584-19.561 125.266 125.266 0 0 0 9.493-79.208c-14.32-67.196-79.16-107.789-147.988-93.16L28.716 53.984C10.735 57.805 3.568 76.873 7.49 95.323l42.56 200.233 247.639-69.603zM80.304 112.995l56.537-12.017c32.473-6.903 61.43 10.916 67.849 41.112 6.08 28.604-10.784 56.686-37.397 66.435l-61.289 25.378-25.7-120.908z"/>
        <path fill="url(#a)" d="M224.981 197.395a125.266 125.266 0 0 0 25.754-75.504C250.698 53.187 195.715 0 125.349 0H29.357C10.975 0 0 17.162 0 36.025v360.903c0 17.73 11.962 36.043 29.723 37.176h132.263c68.098 0 125.35-60.04 125.35-130.975 0-44.03-25.187-83.509-62.355-105.734zM67.549 68.449h57.8c33.199 0 57.818 23.45 57.818 54.32 0 29.243-22.333 53.205-50.392 57.208L67.55 192.058V68.448zm94.437 299.126H67.55V247.457h89.846c33.199 0 62.391 26.319 62.391 56.66 0 33.136-27.473 63.458-57.8 63.458z" transform="rotate(-12 285.842 30.043)"/>
        <path fill="url(#b)" d="M224.981 197.395a125.266 125.266 0 0 0 25.754-75.504C250.698 53.187 195.715 0 125.349 0H29.357C10.975 0 0 17.162 0 36.025v360.903c0 17.73 11.962 36.043 29.723 37.176h132.263c68.098 0 125.35-60.04 125.35-130.975 0-44.03-25.187-83.509-62.355-105.734zM67.549 68.449h57.8c33.199 0 57.818 23.45 57.818 54.32 0 29.243-22.333 53.205-50.392 57.208l-65.226 9.34V68.448zm94.437 299.126H67.55V247.457h89.846c33.199 0 62.391 26.319 62.391 56.66 0 33.136-27.473 63.458-57.8 63.458z" transform="rotate(-12 285.842 30.043)"/>
        <path fill="#fd9573" d="M261.105 206.392l-145.89 70.847 2.307 10.852 87.883-18.68c32.473-6.902 66.5 12.773 72.808 42.45 6.897 32.448-13.636 67.812-43.336 74.125l-92.373 19.635 13.832 65.075 92.374-19.634c66.61-14.159 110.126-84.79 95.378-154.175-9.162-43.104-42.006-76.483-82.983-90.495z"/>
        <path fill="url(#c)" d="M224.688 197.742C150.551 153.567 55.273 169.82 0 236.07v104.07c27.669-56.98 85.618-93.027 149-92.683h9.566a59.502 59.502 0 0 1 28.626 6.378l37.496-56.093z" transform="rotate(-12 285.842 30.043)"/>
    </g>
</svg>
