<svg xmlns="http://www.w3.org/2000/svg" width="158" height="238" viewBox="0 0 158 238">
    <g fill="#FD9573" fill-rule="evenodd">
        <path d="M123 108a68.57 68.57 0 0 0 14.08-41.31C137.06 29.1 107 0 68.53 0H16.05C6 0 0 9.39 0 19.71v197.46c0 9.7 6.54 19.72 16.25 20.34h72.31c37.23 0 68.53-32.85 68.53-71.66 0-24.09-13.77-45.69-34.09-57.85zM36.93 37.45h31.6c18.15 0 31.61 12.83 31.61 29.72 0 16-12.21 29.11-27.55 31.3l-35.66 6.61V37.45zm51.63 163.66H36.93v-65.72h49.12c18.15 0 34.11 14.4 34.11 31 0 18.13-15.02 34.72-31.6 34.72z"/>
        <path d="M140.34 122.63A73 73 0 0 0 123 108a68.57 68.57 0 0 0 14.08-41.31C137.06 29.1 107 0 68.53 0H16.05C6 0 0 9.39 0 19.71v102.92h140.34zM36.93 37.45h31.6c18.15 0 31.61 12.83 31.61 29.72 0 16-12.21 29.11-27.55 31.3l-35.66 6.61V37.45z"/>
        <path d="M140.34 122.63A73 73 0 0 0 123 108a68.57 68.57 0 0 0 14.08-41.31C137.06 29.1 107 0 68.53 0H16.05C6 0 0 9.39 0 19.71v112l140.34-9.08zM36.93 37.45h31.6c18.15 0 31.61 12.83 31.61 29.72 0 16-12.21 29.11-27.55 31.3l-35.66 6.61V37.45z"/>
        <path d="M123 108l-86.07 21.32v6.07h49.12c18.15 0 34.11 14.4 34.11 31 0 18.15-15 34.74-31.6 34.74H36.93v36.4h51.63c37.23 0 68.53-32.85 68.53-71.66 0-24.11-13.77-45.71-34.09-57.87z"/>
        <path d="M122.84 108.19C82.308 84.02 30.218 92.913 0 129.16v56.94c15.127-31.176 46.809-50.898 81.46-50.71h5.23a32.51 32.51 0 0 1 15.65 3.49l20.5-30.69z"/>
    </g>
</svg>
