<svg xmlns="http://www.w3.org/2000/svg" xmlns:xlink="http://www.w3.org/1999/xlink" width="38" height="47" viewBox="0 0 38 47">
    <defs>
        <path id="a" d="M23.01 37.683l.001.002c-2.392.847-3.589 2.117-3.589 3.81a.423.423 0 1 1-.844 0c0-1.693-1.197-2.963-3.59-3.81l.003-.002C6.423 35.837 0 28.198 0 19.054 0 8.531 8.507 0 19 0s19 8.53 19 19.054c0 9.144-6.423 16.783-14.99 18.63zM19 47c-1.05 0-1.9-.853-1.9-1.905 0-1.053.85-1.906 1.9-1.906 1.05 0 1.9.853 1.9 1.906C20.9 46.147 20.05 47 19 47z"/>
        <radialGradient id="c" cx="-42.723%" cy="124.183%" r="237.756%" fx="-42.723%" fy="124.183%" gradientTransform="matrix(.55665 -.17343 .09803 .98485 -.311 -.055)">
            <stop offset="0%" stop-color="#B55636"/>
            <stop offset="48.572%" stop-color="#EE7D58"/>
            <stop offset="100%" stop-color="#FD9573"/>
        </radialGradient>
    </defs>
    <g fill="none" fill-rule="evenodd">
        <g>
            <mask id="b" fill="#fff">
                <use xlink:href="#a"/>
            </mask>
            <use fill="#FD9573" xlink:href="#a"/>
            <ellipse cx="19" cy="19.054" fill="#FBF9F6" mask="url(#b)" rx="17.1" ry="17.149"/>
        </g>
        <path fill="url(#c)" d="M18.62 9.903a4.6 4.6 0 0 0-1.46.224l-1.133-1.782h2.837c.458 0 .827-.347.827-.778V6.529c0-.432-.369-.779-.827-.779h-1.56a.85.85 0 0 0-.612.256L15.4 7.36l-.786-1.233a.844.844 0 0 0-.709-.376h-2.754c-.303 0-.551.234-.551.52v.518c0 .286.248.52.55.52h2.287l.661 1.037H8.807c-.61-.749-1.546-1.297-3.44-1.297H3.456c-.465 0-.854.357-.844.795.007.421.376.762.827.762h1.928c.843 0 1.332.354 1.646.805l-.39.665a4.663 4.663 0 0 0-1.421-.169c-2.318.078-4.187 1.865-4.243 4.052-.055 2.34 1.939 4.25 4.408 4.25 2.052 0 3.777-1.324 4.27-3.114h2.899c.471 0 .847-.37.826-.815-.072-1.528.603-3.04 1.935-4.055l.43.675c-.95.769-1.552 1.91-1.542 3.186.017 2.258 1.97 4.104 4.366 4.123 2.466.023 4.47-1.865 4.449-4.188-.024-2.258-1.983-4.101-4.38-4.117zM5.367 16.65c-1.519 0-2.755-1.165-2.755-2.596 0-1.43 1.236-2.595 2.755-2.595.144 0 .29.01.43.032L4.368 13.94c-.303.519.097 1.155.723 1.155h2.8c-.427.914-1.398 1.557-2.524 1.557zm15.973-2.453c-.076 1.317-1.205 2.381-2.6 2.45-1.587.08-2.906-1.113-2.906-2.593 0-.694.29-1.323.761-1.787l1.701 2.673a.573.573 0 0 0 .758.179l.472-.266a.505.505 0 0 0 .189-.714l-1.673-2.625c.179-.036.361-.052.547-.052 1.57-.003 2.834 1.24 2.751 2.735z" transform="translate(7.6 7.622)"/>
    </g>
</svg>
